<?xml version="1.0" standalone="no"?><!DOCTYPE svg PUBLIC "-//W3C//DTD SVG 1.1//EN" "http://www.w3.org/Graphics/SVG/1.1/DTD/svg11.dtd"><svg t="1598166111139" class="icon" viewBox="0 0 1024 1024" version="1.1" xmlns="http://www.w3.org/2000/svg" p-id="10885" xmlns:xlink="http://www.w3.org/1999/xlink" width="32" height="32"><defs><style type="text/css"></style></defs><path d="M763.205993 0C626.416979 0 547.156055 92.044944 511.360799 150.851436 475.565543 92.044944 396.304619 0 259.515605 0 111.220974 0 0 148.294632 0 345.168539c0 393.747815 478.122347 663.490637 498.576779 674.996255 3.835206 2.556804 7.670412 3.835206 12.78402 3.835206s8.948814-1.278402 12.78402-3.835206c20.454432-11.505618 498.576779-279.970037 498.576779-674.996255 0-196.873908-111.220974-345.168539-259.515605-345.168539zM511.360799 967.750312C437.213483 923.006242 51.13608 676.274657 51.13608 345.168539 51.13608 177.697878 140.62422 51.13608 259.515605 51.13608c158.521848 0 224.998752 155.965044 227.555556 163.635456 3.835206 10.227216 12.78402 15.340824 23.011236 15.340824s19.17603-6.39201 23.011236-15.340824c5.113608-7.670412 71.590512-163.635456 230.11236-163.635456C882.097378 51.13608 971.585518 177.697878 971.585518 345.168539c0 329.827715-386.077403 577.837703-460.224719 622.581773z" fill="#333333" p-id="10886"></path><path d="M341.333333 124.004994c-25.56804-14.062422-53.692884-20.454432-80.539326-20.454432-21.732834 0-43.465668 6.39201-62.641697 19.17603-17.897628 11.505618-35.795256 28.124844-49.857678 48.579276-12.78402 20.454432-24.289638 46.022472-33.238452 76.70412-3.835206 14.062422 3.835206 28.124844 17.897628 31.960049 2.556804 1.278402 5.113608 1.278402 7.670412 1.278402 11.505618 0 21.732834-7.670412 24.289638-19.17603 7.670412-24.289638 16.619226-44.74407 26.846442-60.084893 10.227216-15.340824 21.732834-26.846442 33.238452-34.516854 0 0 1.278402 0 1.278402-1.278402 11.505618-7.670412 23.011236-11.505618 34.516853-11.505618 19.17603 0 38.35206 5.113608 57.52809 15.340824 12.78402 6.39201 28.124844 2.556804 34.516854-10.227216s1.278402-28.124844-11.505618-35.795256z" fill="#333333" p-id="10887"></path></svg>