<?xml version="1.0" standalone="no"?><!DOCTYPE svg PUBLIC "-//W3C//DTD SVG 1.1//EN" "http://www.w3.org/Graphics/SVG/1.1/DTD/svg11.dtd"><svg t="1598165915271" class="icon" viewBox="0 0 1024 1024" version="1.1" xmlns="http://www.w3.org/2000/svg" p-id="9857" width="32" height="32" xmlns:xlink="http://www.w3.org/1999/xlink"><defs><style type="text/css"></style></defs><path d="M540.842397 542.300097" p-id="9858"></path><path d="M256.722454 336.343351c0-137.247874 113.578802-248.478188 253.686816-248.478188 140.119271 0 253.686816 111.230314 253.686816 248.478188 0 137.226385-113.567545 248.473071-253.686816 248.473071C370.307396 584.821539 256.722454 473.568712 256.722454 336.343351L256.722454 336.343351 256.722454 336.343351zM211.951785 336.343351c0 117.863385 71.251787 219.473597 173.847443 265.72806-172.775019 48.938596-302.560944 197.078541-320.840262 377.394303l44.989657 0c22.275329-197.319018 193.054901-350.796528 400.459624-350.796528s378.189412 153.476487 400.460648 350.796528l44.989657 0C937.591513 799.148929 807.793308 651.010007 635.020336 602.071412c102.594633-46.249347 173.85256-147.864676 173.85256-265.72806 0-161.450089-133.629463-292.324812-298.462602-292.324812C345.572038 44.017516 211.951785 174.888146 211.951785 336.343351L211.951785 336.343351 211.951785 336.343351zM211.951785 336.343351" p-id="9859"></path></svg>