<svg id="Layer_2" data-name="Layer 2" xmlns="http://www.w3.org/2000/svg" viewBox="0 0 512 512" width="30" height="30"><defs><style>.cls-1{fill:none;}</style></defs><title>icons_512x512_Refinement</title><rect class="cls-1" width="18" height="12"/><path d="M365,137.67a46.09,46.09,0,0,0-89.75,0H81.05V159H275.3A46.09,46.09,0,0,0,365,159h65.9V137.67Zm-44.87,35.57a24.91,24.91,0,1,1,24.9-24.91A24.94,24.94,0,0,1,320.18,173.24Z"/><path d="M165.33,211.76a46.24,46.24,0,0,0-44.88,35.57H81.05v21.33h39.41a46.09,46.09,0,0,0,89.75,0H430.95V247.33H210.2A46.23,46.23,0,0,0,165.33,211.76Zm0,71.15A24.91,24.91,0,1,1,190.23,258,24.94,24.94,0,0,1,165.33,282.91Z"/></svg>