<?xml version="1.0" encoding="UTF-8" standalone="no"?>
<svg
   xmlns:dc="http://purl.org/dc/elements/1.1/"
   xmlns:cc="http://creativecommons.org/ns#"
   xmlns:rdf="http://www.w3.org/1999/02/22-rdf-syntax-ns#"
   xmlns:svg="http://www.w3.org/2000/svg"
   xmlns="http://www.w3.org/2000/svg"
   viewBox="0 0 491.34668 99.519997"
   height="99.519997"
   width="491.34668"
   xml:space="preserve"
   id="svg2"
   version="1.1"><metadata
     id="metadata8"><rdf:RDF><cc:Work
         rdf:about=""><dc:format>image/svg+xml</dc:format><dc:type
           rdf:resource="http://purl.org/dc/dcmitype/StillImage" /></cc:Work></rdf:RDF></metadata><defs
     id="defs6" /><g
     transform="matrix(1.3333333,0,0,-1.3333333,0,99.52)"
     id="g10"><g
       transform="scale(0.1)"
       id="g12"><path
         id="path14"
         style="fill:#231f20;fill-opacity:1;fill-rule:nonzero;stroke:none"
         d="M 100.117,7.98828 C 83.2305,8.76172 15.5352,8.61328 0,7.98828 3.60547,65.6641 1.44531,502.07 1.44531,502.07 c 16.55079,-1.433 155.54669,0 169.96069,-0.047 34.578,0 72.024,-2.851 105.457,-27.335 27.395,-20.145 48.965,-48.985 48.965,-101.551 0,-68.379 -42.469,-146.914 -181.062,-146.914 -21.602,0 -33.145,1.414 -49.6957,2.89 0,0 2.8906,-197.3435 5.0467,-221.12472 M 95.0703,264.387 c 12.9767,-1.477 25.2107,-2.895 38.1597,-2.895 80.676,0 100.122,69.184 100.122,107.336 0,56.875 -28.098,97.918 -87.864,97.918 -18,0 -33.867,-1.434 -50.4177,-2.879 v -199.48" /><path
         id="path16"
         style="fill:#231f20;fill-opacity:1;fill-rule:nonzero;stroke:none"
         d="m 667.441,87.9609 -30.246,76.3631 c -30.972,1.449 -149.84,1.449 -178.633,0 C 435.52,108.801 412.461,48.9844 400.945,7.98828 c -9.09,0.09766 -56.757,0.36328 -66.992,0 L 417.488,193.789 c 72.746,162.785 114.543,256.426 131.836,315.449 8.02,-0.332 39.453,-0.195 46.797,0 34.57,-98.64 77.797,-199.48 103.715,-260 27.391,-62.617 74.922,-171.4255 107.312,-241.24972 -10.793,0.72266 -96.289,0.09766 -109.46,0 z M 548.586,386.121 475.156,208.918 c 25.176,-0.723 49.68,-2.891 74.871,-2.891 22.328,0 43.95,1.446 66.262,2.891 l -67.703,177.203" /><path
         id="path18"
         style="fill:#231f20;fill-opacity:1;fill-rule:nonzero;stroke:none"
         d="m 920.645,502.07 c 5.71,0 28.25,-0.293 33.828,-0.047 68.447,-75.605 132.537,-142.57 219.697,-227.578 l 84.97,-83.496 c 13.72,-13.019 20.18,-18 36.02,-30.976 0,0 -3.58,283.047 -8.63,342.097 8.36,-0.3 52.55,-0.293 61.2,-0.047 -6.48,-87.121 -6.48,-479.6871 -6.48,-497.65581 -5.05,0.11719 -23.31,0.41015 -29.51,0 C 1220.24,103.75 1043.09,280.215 966.738,350.109 c 0,-97.992 0.711,-150.605 2.141,-226.953 0.738,-41.7029 1.441,-48.9646 6.512,-115.16772 -7.942,0.22656 -53.145,0.22656 -61.243,0 l 5.801,100.09772 c 1.43,19.426 1.43,326.992 0.696,393.984" /><path
         id="path20"
         style="fill:#231f20;fill-opacity:1;fill-rule:nonzero;stroke:none"
         d="M 1877.83,48.9648 C 1827.45,16.6602 1780.65,7.98828 1721.61,7.98828 c -43.94,0 -177.93,1.45703 -199.81,0 0,0 5.77,355.03872 3.59,400.44172 -1.46,30.945 -2.2,61.933 -3.59,93.64 18.99,-1.433 139.98,0 183.24,-0.047 61.2,0 137.52,-2.812 197.31,-49.699 55.47,-43.191 82.86,-108.015 82.86,-182.929 0,-101.524 -39.59,-177.0903 -107.38,-220.4302 M 1614.98,149.805 c 0,-33.106 2.17,-66.9027 3.61,-100.1175 15.85,-0.7227 79.97,-3.5742 97.95,-3.5742 47.54,0 169.92,35.3398 169.92,220.4027 0,92.918 -43.9,197.382 -193.69,197.382 -24.5,0 -49.72,-1.437 -74.18,-3.625 -1.44,-28.781 -3.61,-58.367 -3.61,-87.117 V 149.805" /><path
         id="path22"
         style="fill:#231f20;fill-opacity:1;fill-rule:nonzero;stroke:none"
         d="m 2995.24,224.023 c 10.79,-15.105 26.59,-38.875 37.44,-53.992 56.84,-79.8943 76.31,-105.0974 121.66,-162.04272 -19.55,0.33984 -100.71,1.21094 -122.42,0 -10.78,16.52342 -26.65,43.17192 -37.43,59.82422 -36.74,56.8165 -81.41,120.2535 -120.32,174.9295 h -17.24 c 0,0 2.86,-216.0506 2.86,-234.75372 -14.42,1.45703 -82.09,2.19922 -97.96,0 5.8,141.81672 6.52,401.16372 1.46,494.08172 16.6,-1.433 174.27,0 190.84,-0.047 46.82,0 82.12,-5.753 113.11,-35.277 21.57,-20.906 33.1,-50.379 33.1,-80.641 0,-79.953 -59.76,-121.015 -125.32,-133.293 z m -138.31,52.59 c 13.68,-0.754 30.91,-2.168 49.72,-2.168 71.98,0 98.62,52.586 98.62,99.403 0,30.234 -5.03,56.191 -30.25,74.902 -19.44,14.426 -43.18,17.996 -66.93,17.996 -13.69,0 -40.34,-2.859 -51.16,-3.57 V 276.613" /><path
         id="path24"
         style="fill:#231f20;fill-opacity:1;fill-rule:nonzero;stroke:none"
         d="m 3545.34,87.9609 -30.26,76.3631 c -31.01,1.449 -149.82,1.449 -178.63,0 -23.05,-55.523 -46.11,-115.3396 -57.62,-156.33572 -10.28,0.60547 -56.91,0.04688 -67,0 L 3295.4,193.789 c 72.73,162.785 114.51,256.426 131.81,315.449 7.92,0.078 38.94,-0.332 46.79,0 34.57,-98.64 77.78,-199.48 103.7,-260 27.4,-62.617 74.92,-171.4255 107.36,-241.24972 -10.7,0.04688 -96.52,0.72266 -109.49,0 z M 3426.48,386.121 3353,208.918 c 25.23,-0.723 49.71,-2.891 74.91,-2.891 22.34,0 43.93,1.446 66.25,2.891 l -67.68,177.203" /><path
         id="path26"
         style="fill:#231f20;fill-opacity:1;fill-rule:nonzero;stroke:none"
         d="M 2632.77,263.645 C 2632.77,103.027 2524.02,0 2365.01,0 c -149.83,0 -268.66,88.6602 -268.66,246.348 0,182.968 125.3,263.613 270.77,263.613 133.89,0 265.65,-73.418 265.65,-246.316 M 2365.01,36.8086 c 121.57,0 169.11,115.1644 169.11,218.2114 0,117.414 -43.93,218.222 -169.11,218.222 -123.94,0 -169.98,-119.543 -169.98,-218.222 0,-107.293 46.04,-218.2114 169.98,-218.2114" /><path
         id="path28"
         style="fill:#231f20;fill-opacity:1;fill-rule:nonzero;stroke:none"
         d="m 2382.33,592.227 c 0,-9.5 -7.72,-17.227 -17.21,-17.227 -9.58,0 -17.28,7.727 -17.28,17.227 0,9.558 7.7,17.265 17.28,17.265 9.49,0 17.21,-7.707 17.21,-17.265" /><path
         id="path30"
         style="fill:#231f20;fill-opacity:1;fill-rule:nonzero;stroke:none"
         d="m 2328.67,588.406 c 0,-9.539 -7.74,-17.246 -17.24,-17.246 -9.53,0 -17.28,7.707 -17.28,17.246 0,9.516 7.75,17.25 17.28,17.25 9.5,0 17.24,-7.734 17.24,-17.25" /><path
         id="path32"
         style="fill:#231f20;fill-opacity:1;fill-rule:nonzero;stroke:none"
         d="m 2435.83,588.406 c 0,-9.539 -7.69,-17.246 -17.24,-17.246 -9.54,0 -17.24,7.707 -17.24,17.246 0,9.516 7.7,17.25 17.24,17.25 9.55,0 17.24,-7.734 17.24,-17.25" /><path
         id="path34"
         style="fill:#231f20;fill-opacity:1;fill-rule:nonzero;stroke:none"
         d="m 2428.39,554.68 c -20.23,3.144 -40.74,4.687 -61.27,4.687 -22.81,0 -44.19,-1.719 -65.02,-5.019 l 7.13,-24.192 c 0,0 25.47,4.289 57.89,4.289 32.46,0 53.58,-3.996 53.58,-3.996 l 7.69,24.231" /><path
         id="path36"
         style="fill:#231f20;fill-opacity:1;fill-rule:nonzero;stroke:none"
         d="m 2385.62,623.75 -20.41,122.637 -20.49,-122.735 c 7.44,0.325 12.98,0.489 20.56,0.489 6.17,0 14.21,-0.164 20.34,-0.391" /><path
         id="path38"
         style="fill:#231f20;fill-opacity:1;fill-rule:nonzero;stroke:none"
         d="m 2246.63,735.93 36.31,-119.043 c 12.86,2.304 26.09,4.062 39.56,5.254 l -75.87,113.789" /><path
         id="path40"
         style="fill:#231f20;fill-opacity:1;fill-rule:nonzero;stroke:none"
         d="m 2482.42,735.93 -35.41,-119.043 c -12.91,2.304 -26.06,4.062 -39.57,5.254 l 74.98,113.789" /></g></g></svg>